<svg xmlns="http://www.w3.org/2000/svg" aria-hidden="true" focusable="false" role="presentation" class="icon icon-sulfate-free" viewBox="28.91761016845703 23.249998092651367 86.15924072265625 97.47000122070312"><style>.st0{fill:#fff}.st1{fill:#fff}</style><path class="st1" d="M87.75 62.9c-.23-3.8-.6-7.54-1.12-11.13 3.32-1.22 6.51-2.22 9.47-2.92 9.19-2.17 13.56-1.01 14.6.79 1.06 1.83-.27 6.59-7.5 13.97-.78.79-.77 2.07.03 2.84.79.78 2.07.77 2.84-.03 7.81-7.96 10.62-14.46 8.12-18.8-2.39-4.14-8.97-5.07-19.01-2.7-2.89.68-5.99 1.64-9.2 2.8-2.49-13.88-7.23-24.47-13.99-24.47-9.08 0-14.51 19.08-15.76 39.63-3.18 2.1-6.24 4.3-9.09 6.54-10.86-9.05-15.59-16.82-13.87-19.8 1.06-1.83 5.84-3.06 15.85-.49 1.06.27 2.17-.37 2.45-1.45.28-1.08-.37-2.17-1.45-2.45-10.8-2.78-17.83-1.96-20.33 2.37C26.41 53.49 33.22 62.89 44 72c-10.79 9.11-17.59 18.51-14.21 24.36 1.59 2.75 4.97 3.95 9.5 3.95 8.4 0 20.73-4.14 32.7-10.12 3.41 1.7 6.84 3.25 10.21 4.6-2.41 13.93-6.77 21.91-10.21 21.91-2.12 0-5.58-3.53-8.35-13.48-.3-1.07-1.41-1.7-2.48-1.4-1.07.3-1.69 1.41-1.4 2.48 2.99 10.75 7.22 16.42 12.22 16.42 6.76 0 11.5-10.59 14-24.49 7.04 2.54 13.6 4.07 18.71 4.07 4.52 0 7.91-1.2 9.5-3.95 4.54-7.85-9.27-22.1-26.44-33.45zm5.87 9.08c-1.8 1.39-3.67 2.77-5.65 4.12a140.65 140.65 0 0 0 0-8.21c2 1.37 3.9 2.74 5.65 4.09zM59.98 72c0-2.37.07-4.63.16-6.84 1.86-1.19 3.79-2.38 5.84-3.56 2-1.16 4.01-2.24 6-3.27C74 59.37 76.01 60.45 78 61.6c2.05 1.18 3.98 2.37 5.84 3.56.1 2.21.16 4.47.16 6.84s-.07 4.62-.16 6.83c-1.91 1.22-3.85 2.42-5.84 3.57-2.05 1.18-4.04 2.26-6.01 3.28-1.96-1.02-3.95-2.09-6.01-3.28-2.05-1.18-3.97-2.37-5.83-3.56-.1-2.26-.17-4.54-.17-6.84zm23.56-11.78c-1.17-.72-2.35-1.42-3.53-2.11-1.2-.69-2.4-1.34-3.6-2 2.17-1.04 4.31-1.99 6.41-2.86.3 2.2.53 4.54.72 6.97zM71.99 27.29c3.43 0 7.79 7.98 10.2 21.89-3.33 1.34-6.75 2.87-10.23 4.62-3.43-1.72-6.83-3.27-10.18-4.61 2.42-13.92 6.78-21.9 10.21-21.9zM61.16 53.28c2.1.87 4.23 1.8 6.4 2.83-1.19.65-2.39 1.31-3.58 2-1.18.68-2.36 1.39-3.53 2.1.19-2.41.42-4.74.71-6.93zm-5.14 14.61c-.04 1.37-.06 2.74-.06 4.11 0 1.39.04 2.75.07 4.12-2.02-1.39-3.94-2.76-5.7-4.12 1.76-1.35 3.68-2.73 5.69-4.11zM33.28 94.35c-1.72-2.97 3.02-10.75 13.87-19.8C50 76.8 53.06 79 56.24 81.1c.22 3.84.59 7.56 1.1 11.14-13.26 4.87-22.35 5.09-24.06 2.11zm27.92-3.61c-.3-2.25-.56-4.57-.75-6.96 1.17.72 2.34 1.42 3.52 2.1 1.18.68 2.39 1.35 3.59 2-2.18 1.05-4.32 2.02-6.36 2.86zm15.22-2.85c1.21-.65 2.41-1.32 3.59-2 1.2-.7 2.37-1.41 3.53-2.12-.19 2.44-.42 4.79-.72 6.99-2.05-.85-4.2-1.82-6.4-2.87zm34.29 6.46c-1.72 2.98-10.82 2.76-24.08-2.12.51-3.59.89-7.35 1.12-11.15a136 136 0 0 0 9.1-6.52c10.85 9.05 15.58 16.82 13.86 19.79z"/></svg>