<svg xmlns="http://www.w3.org/2000/svg" aria-hidden="true" focusable="false" role="presentation" class="icon icon-point-down" viewBox="0 0 30.5 38.834"><path d="M3.386 0h16.141a.748.748 0 0 1 .747.717c.068 1.616 4.423 9.141 8.69 15.74 2.134 3.3 1.79 5.864.5 6.938a3.01 3.01 0 0 1-4.082-.35 13.607 13.607 0 0 1-2.82-3.355c.019 5.418.054 15.07.054 15.863a3.233 3.233 0 0 1-3.324 3.28 3.325 3.325 0 0 1-3.483-3.069V28.707a3.359 3.359 0 0 1-1.724.524 3.518 3.518 0 0 1-3.271-1.884 3.587 3.587 0 0 1-2.234.679 3.159 3.159 0 0 1-3.435-2.721.657.657 0 0 1 0-.068v-.254a3.787 3.787 0 0 1-1.976.518 3.276 3.276 0 0 1-3.118-2.939.745.745 0 0 1-.008-.092c0-.043-.092-4.319 0-7a39.486 39.486 0 0 1 1.22-7.859C1.763 5.757 2.642.67 2.651.619A.748.748 0 0 1 3.386 0zm15.526 1.5h-14.9c-.254 1.438-.893 4.964-1.309 6.507a37.827 37.827 0 0 0-1.17 7.521c-.085 2.477-.011 6.359 0 6.861.053.286.367 1.621 1.631 1.621a2.194 2.194 0 0 0 1.976-1.077v-1.865a.75.75 0 0 1 1.5 0v4.13c.038.267.3 1.337 1.942 1.337 1.688 0 1.914-1.187 1.942-1.424v-3.673a.75.75 0 1 1 1.5 0v4.969a2.05 2.05 0 0 0 2 1.334 1.694 1.694 0 0 0 1.7-1.365l.091-3.566a.748.748 0 0 1 .747-.729h.01a.748.748 0 0 1 .738.748v12.866a1.793 1.793 0 0 0 1.989 1.646 1.738 1.738 0 0 0 1.828-1.784c0-1.1-.066-19.3-.067-19.487a.748.748 0 0 1 1.476-.172 12.693 12.693 0 0 0 3.839 6.026c.767.691 1.559.807 2.136.326.632-.528.94-2.288-.8-4.978-1.368-2.117-7.793-12.161-8.799-15.776z" fill="#fff"/></svg>