<svg xmlns="http://www.w3.org/2000/svg" aria-hidden="true" focusable="false" role="presentation" class="icon icon-account" viewBox="0 0 218.988 218.99"><defs><clipPath id="a"><path fill="#7069bc" d="M0 0h218.988v218.99H0z"></path></clipPath></defs><g data-name="Component 1 – 1" transform="translate(-.001)" clip-path="url(#a)"><path data-name="Path 165" d="M109.492 218.99a109.5 109.5 0 1 1 109.5-109.494 109.618 109.618 0 0 1-109.5 109.494zm0-209.4a99.9 99.9 0 1 0 99.9 99.9 100.016 100.016 0 0 0-99.9-99.898z" fill="#7069bc"></path><path data-name="Path 166" d="M109.491 190.161c-36.346 0-65.918-25.645-65.918-57.163 0-2.907 2.716-5.26 6.066-5.26s6.067 2.353 6.067 5.26c0 25.719 24.127 46.642 53.785 46.642s53.793-20.923 53.793-46.642c0-2.907 2.716-5.26 6.067-5.26s6.064 2.353 6.064 5.26c0 31.519-29.571 57.163-65.924 57.163z" fill="#7069bc"></path><path data-name="Path 296" d="M146.377 109.372c36.56-19.551 36.936-28.734 38.172-35.73s-3.062-16.473-12.72-18.179-17.266 7.572-17.266 7.572-3.964-11.322-13.627-13.029-16.942 5.724-18.178 12.72-4.03 15.752 23.62 46.646z" fill="none" stroke="#7069bc" stroke-width="8.002"></path><path data-name="Path 297" d="M73.075 109.35c27.649-30.894 24.856-39.65 23.62-46.647s-8.52-14.425-18.178-12.72-13.627 13.03-13.627 13.03-7.604-9.279-17.266-7.572-13.956 11.182-12.72 18.178 1.612 16.18 38.171 35.73z" fill="none" stroke="#7069bc" stroke-width="9.00225"></path></g></svg>