<svg xmlns="http://www.w3.org/2000/svg" aria-hidden="true" focusable="false" role="presentation" class="icon icon--wide icon-wave" viewBox="0 0 180.24 10.36"><path d="M143.937 10.36c-3.127 0-12.559-.533-18.636-6.592-6.84 6.92-17.248 6.634-18.458 6.574-1.14.061-10.256.317-16.931-6.557-6.678 6.878-15.8 6.617-16.932 6.557-1.236.053-12.238.358-19.154-6.572-6.84 6.917-17.247 6.632-18.457 6.572-1.139.061-10.255.317-16.93-6.557-6.969 7.178-16.6 6.581-17.033 6.551a1.513 1.513 0 0 1 .216-3.019c.095.006 9.654.563 15.646-6.761a1.512 1.512 0 0 1 2.342 0c6.023 7.359 15.548 6.768 15.647 6.761a1.823 1.823 0 0 1 .2 0c.109.007 11.189.578 17.193-6.76a1.513 1.513 0 0 1 2.343 0c6.009 7.345 17.784 6.767 17.905 6.76a1.828 1.828 0 0 1 .2 0c.094.006 9.653.563 15.645-6.761a1.513 1.513 0 0 1 2.343 0c6.022 7.359 15.55 6.768 15.646 6.761a1.835 1.835 0 0 1 .2 0c.109.007 11.189.578 17.193-6.76a1.513 1.513 0 0 1 2.343 0c6.031 7.37 18.2 6.766 18.326 6.76a1.687 1.687 0 0 1 .194 0c.094.006 9.653.563 15.646-6.761a1.515 1.515 0 0 1 1.171-.555 1.515 1.515 0 0 1 1.171.555c5.99 7.321 15.555 6.767 15.649 6.761a1.514 1.514 0 0 1 .212 3.02c-.427.03-10.064.626-17.032-6.551-6.681 6.88-15.81 6.619-16.934 6.557-.158.006-.48.017-.934.017z" fill="#ffffff"></path></svg>